<?xml version="1.0" encoding="utf-8"?>
<!DOCTYPE svg PUBLIC "-//W3C//DTD SVG 1.0//EN" "http://www.w3.org/TR/2001/REC-SVG-20010904/DTD/svg10.dtd">
<svg version="1.0" xmlns="http://www.w3.org/2000/svg" width="96px" height="96px" viewBox="0 0 96 96" preserveAspectRatio="xMidYMid meet">
 <g fill="#060608" fill-rule="evenodd">
  <path d="M24 90 L24 84 12 84 L0 84 0 42 L0 0 24 0 L48 0 48 6 L48 12 72 12 L96 12 96 48 L96 84 90 84 L84 84 84 90 L84 96 54 96 L24 96 24 90 M30 78 L23 78C19.1 78 15.7 78 15.5 78 C15.2 78 14.3 78 13.5 78 L12 78L12 78 L11.5 78C11.2 78 9.8 78 8.5 78 L6 78 6 75 L6 72L6 72 L6 69.5C6 68.1 6 66.7 6 66.5 C6 66.2 6 57.9 6 48 L6 30L6 30 L6 29C6 28.4 6 27.7 6 27.5 C6 27.2 6 26.3 6 25.5 L6 24L6 24 L6 23C6 22.4 6 21.7 6 21.5 C6 21.2 6 20.3 6 19.5 L6 18L6 18 L6 12L6 6 24 6 L42 6 42 11.5 C42 14.5 42 17.2 42 17.5 L42 18L42 18 L66 18L90 18 90 20.5 C90 21.8 90 23.2 90 23.5 L90 24L90 24 L90 25.5C90 26.3 90 27.2 90 27.5 C90 27.7 90 28.4 90 29 L90 30L90 30 L90 48C90 57.9 90 66.2 90 66.5 C90 66.7 90 68.1 90 69.5 L90 72L90 72 L90 75L90 78 87.5 78 C86.1 78 84.7 78 84.5 78 L84 78L84 78 L83 78C82.4 78 81.7 78 81.5 78 C81.2 78 80.3 78 79.5 78 L78 78L78 78 L78 78.5C78 78.7 78 81.4 78 84.5 L78 90 54 90 L30 90 30 84 L30 78"/>
 </g>
 <g fill="#333940" fill-rule="evenodd">
  <path d="M30 54 L30 53C30 52.4 30 51.7 30 51.5 C30 51.2 30 50.3 30 49.5 L30 48L30 48 L31.5 48C32.3 48 33.2 48 33.5 48 C33.7 48 34.4 48 35 48 L36 48L36 48 L36.5 48C36.7 48 39.4 48 42.5 48 L48 48 48 42 L48 36L48 36 L48 35C48 34.4 48 33.7 48 33.5 C48 33.2 48 32.3 48 31.5 L48 30L48 30 L49.5 30C50.3 30 51.2 30 51.5 30 C51.7 30 52.4 30 53 30 L54 30L54 30 L54 31.5C54 32.3 54 33.2 54 33.5 C54 33.7 54 34.4 54 35 L54 36L54 36 L54 45L54 54 45.5 54 C40.8 54 36.7 54 36.5 54 L36 54L36 54 L35 54C34.4 54 33.7 54 33.5 54 C33.2 54 32.3 54 31.5 54 L30 54"/>
 </g>
 <g fill="#4a5462" fill-rule="evenodd">
  <path d="M30 78 L30 77C30 76.4 30 75.7 30 75.5 C30 75.2 30 74.3 30 73.5 L30 72L30 72 L30 65C30 61.1 30 57.7 30 57.5 C30 57.2 30 56.3 30 55.5 L30 54L30 54 L31.5 54C32.3 54 33.2 54 33.5 54 C33.7 54 34.4 54 35 54 L36 54L36 54 L36 54.5C36 54.7 36 61.5 36 69.5 L36 84 54 84 L72 84 72 60 L72 36 63 36 L54 36L54 36 L54 35C54 34.4 54 33.7 54 33.5 C54 33.2 54 32.3 54 31.5 L54 30L54 30 L66 30L78 30 78 32.5 C78 33.8 78 35.2 78 35.5 L78 36L78 36 L78 41C78 43.7 78 46.2 78 46.5 C78 46.7 78 51.2 78 56.5 L78 66L78 66 L78 67C78 67.5 78 68.2 78 68.5 C78 68.7 78 71 78 73.5 L78 78L78 78 L78 78.5C78 78.7 78 81.4 78 84.5 L78 90 54 90 L30 90 30 84 L30 78"/>
  <path d="M30 48 L30 47.5C30 47.2 30 45.8 30 44.5 L30 42 33 42 L36 42L36 42 L36 41.5C36 41.2 36 39.8 36 38.5 L36 36 39 36 L42 36L42 36 L42 35C42 34.4 42 33.7 42 33.5 C42 33.2 42 32.3 42 31.5 L42 30L42 30 L43.5 30C44.3 30 45.2 30 45.5 30 C45.7 30 46.4 30 47 30 L48 30L48 30 L48 31.5C48 32.3 48 33.2 48 33.5 C48 33.7 48 34.4 48 35 L48 36L48 36 L47 36C46.4 36 45.7 36 45.5 36 C45.2 36 44.3 36 43.5 36 L42 36L42 36 L42 39L42 42 39.5 42 C38.1 42 36.7 42 36.5 42 L36 42L36 42 L36 43.5C36 44.3 36 45.2 36 45.5 C36 45.7 36 46.4 36 47 L36 48L36 48 L35 48C34.4 48 33.7 48 33.5 48 C33.2 48 32.3 48 31.5 48 L30 48"/>
 </g>
 <g fill="#8e5252" fill-rule="evenodd">
  <path d="M6 24 L6 23C6 22.4 6 21.7 6 21.5 C6 21.2 6 20.3 6 19.5 L6 18L6 18 L7.5 18C8.3 18 9.2 18 9.5 18 C9.7 18 10.4 18 11 18 L12 18L12 18 L24 18L36 18L36 18 L37.5 18C38.3 18 39.2 18 39.5 18 C39.7 18 40.4 18 41 18 L42 18L42 18 L66 18L90 18 90 20.5 C90 21.8 90 23.2 90 23.5 L90 24L90 24 L89 24C88.4 24 87.7 24 87.5 24 C87.2 24 86.3 24 85.5 24 L84 24L84 24 L73.5 24C67.7 24 62.7 24 62.5 24 C62.2 24 50.7 24 37 24 L12 24L12 24 L11 24C10.4 24 9.7 24 9.5 24 C9.2 24 8.3 24 7.5 24 L6 24"/>
 </g>
 <g fill="#bb7547" fill-rule="evenodd">
  <path d="M6 72 L9 72L12 72 12 74.5 C12 75.8 12 77.2 12 77.5 L12 78L12 78 L11.5 78C11.2 78 9.8 78 8.5 78 L6 78 6 75 L6 72"/>
  <path d="M84 78 L84 77.5C84 77.2 84 75.8 84 74.5 L84 72 87 72 L90 72L90 72 L90 75L90 78 87.5 78 C86.1 78 84.7 78 84.5 78 L84 78"/>
  <path d="M6 30 L6 29C6 28.4 6 27.7 6 27.5 C6 27.2 6 26.3 6 25.5 L6 24L6 24 L7.5 24C8.3 24 9.2 24 9.5 24 C9.7 24 10.4 24 11 24 L12 24L12 24 L12 27L12 30 9.5 30 C8.1 30 6.7 30 6.5 30 L6 30"/>
  <path d="M84 24 L85.5 24C86.3 24 87.2 24 87.5 24 C87.7 24 88.4 24 89 24 L90 24L90 24 L90 25.5C90 26.3 90 27.2 90 27.5 C90 27.7 90 28.4 90 29 L90 30L90 30 L89.5 30C89.2 30 87.8 30 86.5 30 L84 30 84 27 L84 24"/>
  <path d="M6 18 L6 12L6 6 24 6 L42 6 42 11.5 C42 14.5 42 17.2 42 17.5 L42 18L42 18 L41 18C40.4 18 39.7 18 39.5 18 C39.2 18 38.3 18 37.5 18 L36 18L36 18 L36 17.5C36 17.2 36 15.8 36 14.5 L36 12 24 12 L12 12 12 15 L12 18L12 18 L11 18C10.4 18 9.7 18 9.5 18 C9.2 18 8.3 18 7.5 18 L6 18"/>
 </g>
 <g fill="#dba362" fill-rule="evenodd">
  <path d="M12 78 L12 77.5C12 77.2 12 75.8 12 74.5 L12 72 9 72 L6 72L6 72 L6 69.5C6 68.1 6 66.7 6 66.5 C6 66.2 6 57.9 6 48 L6 30L6 30 L6.5 30C6.7 30 8.1 30 9.5 30 L12 30 12 27 L12 24L12 24 L37 24C50.7 24 62.2 24 62.5 24 C62.7 24 67.7 24 73.5 24 L84 24L84 24 L84 27L84 30 86.5 30 C87.8 30 89.2 30 89.5 30 L90 30L90 30 L90 48C90 57.9 90 66.2 90 66.5 C90 66.7 90 68.1 90 69.5 L90 72L90 72 L87 72L84 72 84 74.5 C84 75.8 84 77.2 84 77.5 L84 78L84 78 L83 78C82.4 78 81.7 78 81.5 78 C81.2 78 80.3 78 79.5 78 L78 78L78 78 L78 73.5C78 71 78 68.7 78 68.5 C78 68.2 78 67.5 78 67 L78 66L78 66 L78.5 66C78.7 66 80.1 66 81.5 66 L84 66 84 51 L84 36 81 36 L78 36L78 36 L78 35.5C78 35.2 78 33.8 78 32.5 L78 30 66 30 L54 30L54 30 L53 30C52.4 30 51.7 30 51.5 30 C51.2 30 50.3 30 49.5 30 L48 30L48 30 L47 30C46.4 30 45.7 30 45.5 30 C45.2 30 44.3 30 43.5 30 L42 30L42 30 L30 30L18 30 18 33 L18 36 15 36 L12 36 12 51 L12 66 15 66 L18 66 18 69 L18 72 23.5 72 C26.5 72 29.2 72 29.5 72 L30 72L30 72 L30 73.5C30 74.3 30 75.2 30 75.5 C30 75.7 30 76.4 30 77 L30 78L30 78 L23 78C19.1 78 15.7 78 15.5 78 C15.2 78 14.3 78 13.5 78 L12 78"/>
  <path d="M12 18 L12 15L12 12 24 12 L36 12 36 14.5 C36 15.8 36 17.2 36 17.5 L36 18L36 18 L24 18L12 18"/>
 </g>
 <g fill="#ffd540" fill-rule="evenodd">
  <path d="M42 30 L42 31.5C42 32.3 42 33.2 42 33.5 C42 33.7 42 34.4 42 35 L42 36L42 36 L39 36L36 36 36 38.5 C36 39.8 36 41.2 36 41.5 L36 42L36 42 L33 42L30 42 30 44.5 C30 45.8 30 47.2 30 47.5 L30 48L30 48 L30 49.5C30 50.3 30 51.2 30 51.5 C30 51.7 30 52.4 30 53 L30 54L30 54 L30 55.5C30 56.3 30 57.2 30 57.5 C30 57.7 30 61.1 30 65 L30 72L30 72 L29.5 72C29.2 72 26.5 72 23.5 72 L18 72 18 69 L18 66 15 66 L12 66 12 51 L12 36 15 36 L18 36 18 33 L18 30 30 30 L42 30"/>
  <path d="M78 66 L78 56.5C78 51.2 78 46.7 78 46.5 C78 46.2 78 43.7 78 41 L78 36L78 36 L81 36L84 36 84 51 L84 66 81.5 66 C80.1 66 78.7 66 78.5 66 L78 66"/>
 </g>
 <g fill="#e3e5ff" fill-rule="evenodd">
  <path d="M36 54 L36.5 54C36.7 54 40.8 54 45.5 54 L54 54 54 45 L54 36L54 36 L63 36L72 36 72 60 L72 84 54 84 L36 84 36 69.5 C36 61.5 36 54.7 36 54.5 L36 54"/>
  <path d="M36 48 L36 47C36 46.4 36 45.7 36 45.5 C36 45.2 36 44.3 36 43.5 L36 42L36 42 L36.5 42C36.7 42 38.1 42 39.5 42 L42 42 42 39 L42 36L42 36 L43.5 36C44.3 36 45.2 36 45.5 36 C45.7 36 46.4 36 47 36 L48 36L48 36 L48 42L48 48 42.5 48 C39.4 48 36.7 48 36.5 48 L36 48"/>
 </g>
</svg>